<?xml version="1.0" encoding="utf-8"?>
<!-- Generator: Adobe Illustrator 22.1.0, SVG Export Plug-In . SVG Version: 6.00 Build 0)  -->
<svg version="1.1" id="Capa_1" xmlns="http://www.w3.org/2000/svg" xmlns:xlink="http://www.w3.org/1999/xlink" x="0px" y="0px"
	 viewBox="0 0 500 500" style="enable-background:new 0 0 500 500;" xml:space="preserve">
<style type="text/css">
	.st0{fill:#FFFFFF;}
</style>
<path class="st0" d="M100.7,220.1h12.6c23,52.7,75.5,89.6,136.7,89.6s113.6-36.9,136.7-89.6h12.6c8.2,0,14.9-6.7,14.9-14.9v-89.6
	c0-8.2-6.7-14.9-14.9-14.9h-12.6C363.6,48,311.2,11.1,250,11.1S136.4,48,113.3,100.7h-12.6c-8.2,0-14.9,6.7-14.9,14.9v89.6
	C85.8,213.4,92.5,220.1,100.7,220.1z M138,138c0-20.6,20.1-37.3,44.8-37.3h134.4c24.7,0,44.8,16.7,44.8,37.3v22.4
	c0,49.5-40.1,89.6-89.6,89.6h-44.8c-49.5,0-89.6-40.1-89.6-89.6V138z M205.2,205.2l11.2-33.6l33.6-11.2l-33.6-11.2l-11.2-33.6
	L194,149.2l-33.6,11.2l33.6,11.2L205.2,205.2z M346.7,311c-27.9,18-61,28.6-96.7,28.6S181.2,329,153.3,311
	C90.4,317.6,41,370.4,41,435.1v9c0,24.7,20.1,44.8,44.8,44.8h74.6v-59.7c0-16.5,13.3-29.9,29.9-29.9h119.4
	c16.5,0,29.9,13.3,29.9,29.9v59.7h74.6c24.7,0,44.8-20.1,44.8-44.8v-9C459,370.4,409.6,317.6,346.7,311z M294.8,429.1
	c-8.2,0-14.9,6.7-14.9,14.9c0,8.2,6.7,14.9,14.9,14.9c8.2,0,14.9-6.7,14.9-14.9C309.7,435.9,303,429.1,294.8,429.1z M205.2,429.1
	c-8.2,0-14.9,6.7-14.9,14.9v44.8h29.9v-44.8C220.1,435.9,213.4,429.1,205.2,429.1z"/>
</svg>
