<?xml version="1.0" encoding="utf-8"?>
<!-- Generator: Adobe Illustrator 22.1.0, SVG Export Plug-In . SVG Version: 6.00 Build 0)  -->
<svg version="1.1" id="Capa_1" xmlns="http://www.w3.org/2000/svg" xmlns:xlink="http://www.w3.org/1999/xlink" x="0px" y="0px"
	 viewBox="0 0 500 500" style="enable-background:new 0 0 500 500;" xml:space="preserve">
<style type="text/css">
	.st0{display:none;fill:#FFFFFF;}
	.st1{fill:#FFFFFF;}
</style>
<path class="st0" d="M318.6,223.9h-62v22.9c0,16.2-13.2,29.4-29.4,29.4s-29.4-13.2-29.4-29.4v-49.6L171.3,213
	c-7.9,4.7-12.7,13.2-12.7,22.4v19.3l-32.7,18.9c-6.2,3.6-8.4,11.6-4.8,17.8l32.7,56.6c3.6,6.2,11.6,8.4,17.8,4.8l42.2-24.4h55.8
	c14.4,0,26.1-11.7,26.1-26.1h6.5c7.2,0,13.1-5.8,13.1-13.1v-26.1h3.3c5.4,0,9.8-4.4,9.8-9.8v-19.6
	C328.4,228.2,324,223.9,318.6,223.9z M378.9,208.6L346.2,152c-3.6-6.2-11.6-8.4-17.8-4.8l-42.2,24.4h-41.7c-4.9,0-9.7,1.4-13.8,4
	l-13.7,8.5c-3.8,2.4-6.1,6.6-6.1,11.1v51.6c0,9,7.3,16.3,16.3,16.3s16.3-7.3,16.3-16.3v-35.9h75.1c12.6,0,22.9,10.2,22.9,22.9v11.6
	l32.7-18.9C380.3,222.8,382.5,214.9,378.9,208.6z"/>
<path class="st0" d="M276.1,276.1h-52.3c-7.2,0-13.1,5.8-13.1,13.1v52.3c0,7.2,5.8,13.1,13.1,13.1h52.3c7.2,0,13.1-5.8,13.1-13.1
	v-52.3C289.2,282,283.3,276.1,276.1,276.1z M197.8,158.6c0-7.2-5.8-13.1-13.1-13.1h-52.3c-7.2,0-13.1,5.8-13.1,13.1v52.3
	c0,7.2,5.8,13.1,13.1,13.1h39.1l29.9,52.3c4.5-7.8,12.9-13.1,22.5-13.1h0.1l-26.2-45.9v-19.4h91.4v-26.1h-91.4V158.6z M367.6,145.5
	h-52.3c-7.2,0-13.1,5.8-13.1,13.1v52.3c0,7.2,5.8,13.1,13.1,13.1h52.3c7.2,0,13.1-5.8,13.1-13.1v-52.3
	C380.6,151.3,374.8,145.5,367.6,145.5z"/>
<path class="st1" d="M282.7,290.8c0,4.5-3.7,8.2-8.2,8.2h-49c-4.5,0-8.2-3.7-8.2-8.2v-24.5h-98v73.5c0,13.1,11.4,24.5,24.5,24.5
	h212.3c13.1,0,24.5-11.4,24.5-24.5v-73.5h-98V290.8z M356.1,184.7h-40.8v-24.5c0-13.1-11.4-24.5-24.5-24.5h-81.6
	c-13.1,0-24.5,11.4-24.5,24.5v24.5h-40.8c-13.1,0-24.5,11.4-24.5,24.5V250h261.3v-40.8C380.6,196.1,369.2,184.7,356.1,184.7z
	 M282.7,184.7h-65.3v-16.3h65.3V184.7z"/>
<path class="st0" d="M250,135.7c-72.1,0-130.6,47.5-130.6,106.1c0,25.3,10.9,48.5,29.1,66.7c-6.4,25.7-27.7,48.6-28,48.9
	c-1.1,1.2-1.4,2.9-0.8,4.4s2.1,2.4,3.7,2.4c33.8,0,59.2-16.2,71.7-26.2c16.7,6.3,35.2,9.9,54.8,9.9c72.1,0,130.6-47.5,130.6-106.1
	S322.1,135.7,250,135.7z M184.7,258.2c-9,0-16.3-7.3-16.3-16.3s7.3-16.3,16.3-16.3s16.3,7.3,16.3,16.3S193.7,258.2,184.7,258.2z
	 M250,258.2c-9,0-16.3-7.3-16.3-16.3s7.3-16.3,16.3-16.3s16.3,7.3,16.3,16.3S259,258.2,250,258.2z M315.3,258.2
	c-9,0-16.3-7.3-16.3-16.3s7.3-16.3,16.3-16.3s16.3,7.3,16.3,16.3S324.3,258.2,315.3,258.2z"/>
</svg>
